<svg width="24" height="24" viewBox="0 0 24 24" fill="none" xmlns="http://www.w3.org/2000/svg">
<path d="M19.1391 12.9359C19.1751 12.6359 19.1991 12.3239 19.1991 11.9999C19.1991 11.6759 19.1751 11.3639 19.1271 11.0639L21.1551 9.4799C21.3351 9.3359 21.3831 9.0719 21.2751 8.8679L19.3551 5.5439C19.2351 5.3279 18.9831 5.2559 18.7671 5.3279L16.3791 6.2879C15.8751 5.9039 15.3471 5.5919 14.7591 5.3519L14.3991 2.8079C14.3631 2.5679 14.1591 2.3999 13.9191 2.3999H10.0791C9.83913 2.3999 9.64713 2.5679 9.61113 2.8079L9.25113 5.3519C8.66313 5.5919 8.12313 5.9159 7.63113 6.2879L5.24313 5.3279C5.02713 5.2439 4.77513 5.3279 4.65513 5.5439L2.73513 8.8679C2.61513 9.0839 2.66313 9.3359 2.85513 9.4799L4.88313 11.0639C4.83513 11.3639 4.79913 11.6879 4.79913 11.9999C4.79913 12.3119 4.82313 12.6359 4.87113 12.9359L2.84313 14.5199C2.66313 14.6639 2.61513 14.9279 2.72313 15.1319L4.64313 18.4559C4.76313 18.6719 5.01513 18.7439 5.23113 18.6719L7.61913 17.7119C8.12313 18.0959 8.65113 18.4079 9.23913 18.6479L9.59913 21.1919C9.64713 21.4319 9.83913 21.5999 10.0791 21.5999H13.9191C14.1591 21.5999 14.3631 21.4319 14.3871 21.1919L14.7471 18.6479C15.3351 18.4079 15.8751 18.0839 16.3671 17.7119L18.7551 18.6719C18.9711 18.7559 19.2231 18.6719 19.3431 18.4559L21.2631 15.1319C21.3831 14.9159 21.3351 14.6639 21.1431 14.5199L19.1391 12.9359ZM11.9991 15.5999C10.0191 15.5999 8.39913 13.9799 8.39913 11.9999C8.39913 10.0199 10.0191 8.3999 11.9991 8.3999C13.9791 8.3999 15.5991 10.0199 15.5991 11.9999C15.5991 13.9799 13.9791 15.5999 11.9991 15.5999Z" fill="white"/>
</svg>
