<svg width="453" height="140" viewBox="0 0 453 140" fill="none" xmlns="http://www.w3.org/2000/svg">
<path d="M31 134.501L26.5 50.0015C42.9 97.2015 90.5 110.501 111 110.501L31 134.501Z" fill="#31FECD"/>
<circle cx="54" cy="48.5015" r="3" fill="#31FECD"/>
<circle cx="70" cy="48.5015" r="2" fill="#31FECD"/>
<path fill-rule="evenodd" clip-rule="evenodd" d="M124 77.5019C124 87.2892 121.732 96.5469 117.693 104.778L93.5 39.5019H25V127.256C9.82716 115.954 0 97.8757 0 77.5019C0 51.6469 15.8261 29.4883 38.3194 20.1849C38.4824 19.2673 38.7222 18.0418 39.0689 16.2996C39.8498 12.3764 41.2019 8.66283 43.4547 5.92839C45.7632 3.12636 49.0075 1.37921 53.3106 1.50814C54.1304 1.53271 54.9079 1.60974 55.6444 1.73601C57.4076 0.568467 59.5247 -0.0732912 62.023 0.00667953C66.1512 0.138823 69.1348 1.78939 71.1528 4.45631C73.1144 7.04862 74.0715 10.4768 74.5 14.0559C74.6032 14.9177 74.6766 15.8421 74.7252 16.809C73.7219 16.5997 72.7097 16.4147 71.6892 16.2546C71.6466 15.6131 71.5912 14.9968 71.5212 14.4125C71.1205 11.0651 70.2595 8.24753 68.7605 6.26655C67.318 4.36017 65.1984 3.10986 61.927 3.00514C61.1699 2.98091 60.4653 3.04287 59.8083 3.18424C61.0829 3.90699 62.1635 4.84371 63.0641 5.95778C65.1596 8.55008 66.1821 11.9782 66.6399 15.5573C66.6449 15.5964 66.6498 15.6353 66.6547 15.674C68.3528 15.8 70.0319 15.9945 71.6892 16.2546C72.0526 21.7292 71.4787 29.0311 70.9953 33.8327C70.8837 34.9416 70.7768 36.0027 70.6875 36.9978L73.6755 37.2661C73.7589 36.3367 73.8614 35.3244 73.9702 34.2495L73.9703 34.2484C74.4334 29.6731 75.0112 22.503 74.7252 16.809C102.863 22.6786 124 47.6218 124 77.5019ZM63.4043 15.5175C62.9554 12.344 62.0461 9.67029 60.5084 7.76801C59.4866 6.504 58.1468 5.52841 56.3411 4.98395C55.9245 5.36152 55.5361 5.78798 55.1729 6.25896C53.479 8.45547 52.3325 11.6372 51.6412 15.3476C51.5768 15.6933 51.5166 16.0423 51.4604 16.3941C50.4099 16.574 49.3684 16.7803 48.3367 17.0124C48.4385 16.2646 48.5565 15.5252 48.692 14.7981C49.4162 10.9108 50.6654 7.22934 52.7396 4.50224C49.8205 4.53652 47.6586 5.7382 45.9926 7.76042C44.183 9.95693 42.9582 13.1386 42.2197 16.849C42.0661 17.6206 41.9406 18.2819 41.8383 18.8538C43.955 18.1263 46.1234 17.5101 48.3367 17.0124C47.3375 24.3483 47.8928 32.4904 48.7576 37.7437C49.0861 37.7437 49.465 37.6502 49.891 37.545C50.4276 37.4126 51.0388 37.2618 51.7177 37.2564C50.8424 31.9389 50.3123 23.5802 51.4604 16.3941C54.8858 15.8075 58.4072 15.5019 62 15.5019C62.4693 15.5019 62.9375 15.5071 63.4043 15.5175ZM39.909 135.451L112.67 113.239C101.444 129.127 82.9335 139.502 62 139.502C54.2183 139.502 46.7714 138.068 39.909 135.451Z" fill="#0F64C4"/>
<path d="M25 127.001C17.4 123.001 11.1667 113.668 9 109.501L25 39.5015V127.001Z" fill="#0C509D"/>
<path d="M160.05 101H153.05V65.55H160.05V101ZM175.038 94.6H180.538C183.638 94.6 186.188 93.6333 188.188 91.7C190.188 89.7667 191.188 86.9667 191.188 83.3C191.188 79.6333 190.188 76.8333 188.188 74.9C186.188 72.9333 183.655 71.95 180.588 71.95H175.038V94.6ZM180.788 101H168.138V65.55H180.838C186.005 65.55 190.205 67.1333 193.438 70.3C196.705 73.4667 198.338 77.8 198.338 83.3C198.338 88.7667 196.705 93.0833 193.438 96.25C190.171 99.4167 185.955 101 180.788 101ZM226.52 101H204.32V65.55H226.52V72.05H211.22V80.15H225.07V86.3H211.22V94.5H226.52V101ZM250.921 101L243.971 87.35H240.371V101H233.421V65.55H247.271C250.671 65.55 253.404 66.5833 255.471 68.65C257.538 70.7167 258.571 73.3167 258.571 76.45C258.571 78.9167 257.888 81.05 256.521 82.85C255.188 84.6167 253.354 85.8333 251.021 86.5L258.621 101H250.921ZM240.371 81.4H245.971C247.704 81.4 249.054 80.95 250.021 80.05C251.021 79.15 251.521 77.9667 251.521 76.5C251.521 75 251.021 73.8 250.021 72.9C249.054 72 247.704 71.55 245.971 71.55H240.371V81.4ZM288.623 101L285.673 92.9H271.273L268.323 101H261.023L274.623 65.55H282.623L296.123 101H288.623ZM278.473 73.2L273.573 86.6H283.373L278.473 73.2ZM313.967 63.97C310.887 66.8167 309.347 70.8767 309.347 76.15C309.347 81.4233 310.887 85.5067 313.967 88.4C317.047 91.2467 320.664 92.67 324.817 92.67C329.017 92.67 332.657 91.2467 335.737 88.4C338.817 85.5067 340.357 81.4233 340.357 76.15C340.357 70.8767 338.817 66.8167 335.737 63.97C332.657 61.0767 329.017 59.63 324.817 59.63C320.664 59.63 317.047 61.0767 313.967 63.97ZM299.337 76.22C299.337 68.4733 301.834 62.22 306.827 57.46C311.821 52.7 317.817 50.32 324.817 50.32C331.864 50.32 337.884 52.7 342.877 57.46C347.871 62.22 350.367 68.4733 350.367 76.22C350.367 83.92 347.871 90.15 342.877 94.91C337.884 99.67 331.864 102.05 324.817 102.05C317.817 102.05 311.821 99.67 306.827 94.91C301.834 90.15 299.337 83.92 299.337 76.22ZM391.996 63.2L383.316 65.86C382.989 64.0867 382.102 62.4767 380.656 61.03C379.209 59.5833 377.086 58.86 374.286 58.86C371.999 58.86 370.132 59.49 368.686 60.75C367.239 61.9633 366.516 63.4333 366.516 65.16C366.516 68.1933 368.312 70.06 371.906 70.76L378.836 72.09C383.222 72.93 386.629 74.68 389.056 77.34C391.482 80 392.696 83.1267 392.696 86.72C392.696 90.8267 391.062 94.42 387.796 97.5C384.576 100.533 380.236 102.05 374.776 102.05C371.649 102.05 368.826 101.583 366.306 100.65C363.786 99.7167 361.756 98.48 360.216 96.94C358.676 95.3533 357.462 93.6967 356.576 91.97C355.736 90.1967 355.222 88.3767 355.036 86.51L363.996 84.13C364.229 86.79 365.256 89.0067 367.076 90.78C368.942 92.5533 371.532 93.44 374.846 93.44C377.366 93.44 379.326 92.88 380.726 91.76C382.172 90.64 382.896 89.17 382.896 87.35C382.896 85.9033 382.359 84.6667 381.286 83.64C380.259 82.5667 378.789 81.8433 376.876 81.47L369.946 80.07C365.932 79.23 362.759 77.5733 360.426 75.1C358.092 72.6267 356.926 69.5467 356.926 65.86C356.926 61.4733 358.606 57.7867 361.966 54.8C365.372 51.8133 369.456 50.32 374.216 50.32C377.062 50.32 379.606 50.7167 381.846 51.51C384.086 52.3033 385.882 53.3767 387.236 54.73C388.589 56.0367 389.639 57.39 390.386 58.79C391.132 60.19 391.669 61.66 391.996 63.2Z" fill="#0F64C4"/>
<path d="M190.947 124.668C190.804 124.525 190.69 124.362 190.605 124.18C190.521 123.991 190.479 123.776 190.479 123.535C190.479 123.288 190.524 123.07 190.615 122.881C190.713 122.686 190.833 122.529 190.977 122.412C191.23 122.204 191.497 122.1 191.777 122.1C192.064 122.1 192.305 122.119 192.5 122.158C192.702 122.197 192.891 122.259 193.066 122.344C193.47 122.552 193.672 122.852 193.672 123.242C193.672 123.73 193.512 124.157 193.193 124.521C192.894 124.86 192.581 125.046 192.256 125.078C191.937 125.111 191.676 125.085 191.475 125C191.273 124.922 191.097 124.811 190.947 124.668ZM196.357 124.668C196.214 124.525 196.1 124.362 196.016 124.18C195.931 123.991 195.889 123.776 195.889 123.535C195.889 123.288 195.934 123.07 196.025 122.881C196.123 122.686 196.243 122.529 196.387 122.412C196.641 122.204 196.908 122.1 197.188 122.1C197.474 122.1 197.715 122.119 197.91 122.158C198.112 122.197 198.301 122.259 198.477 122.344C198.88 122.552 199.082 122.852 199.082 123.242C199.082 123.73 198.923 124.157 198.604 124.521C198.304 124.86 197.992 125.046 197.666 125.078C197.347 125.111 197.087 125.085 196.885 125C196.683 124.922 196.507 124.811 196.357 124.668ZM201.768 124.668C201.624 124.525 201.51 124.362 201.426 124.18C201.341 123.991 201.299 123.776 201.299 123.535C201.299 123.288 201.344 123.07 201.436 122.881C201.533 122.686 201.654 122.529 201.797 122.412C202.051 122.204 202.318 122.1 202.598 122.1C202.884 122.1 203.125 122.119 203.32 122.158C203.522 122.197 203.711 122.259 203.887 122.344C204.29 122.552 204.492 122.852 204.492 123.242C204.492 123.73 204.333 124.157 204.014 124.521C203.714 124.86 203.402 125.046 203.076 125.078C202.757 125.111 202.497 125.085 202.295 125C202.093 124.922 201.917 124.811 201.768 124.668ZM207.031 121.582C207.057 121.016 207.152 120.475 207.314 119.961C207.477 119.44 207.695 118.939 207.969 118.457C208.242 117.969 208.561 117.51 208.926 117.08C209.297 116.644 209.697 116.263 210.127 115.938C211.058 115.241 211.999 114.893 212.949 114.893C214.062 114.893 214.805 115.352 215.176 116.27C215.306 116.582 215.368 116.953 215.361 117.383C215.355 117.806 215.273 118.2 215.117 118.564C214.961 118.923 214.743 119.251 214.463 119.551C214.189 119.844 213.861 120.107 213.477 120.342C213.099 120.576 212.686 120.775 212.236 120.938C211.312 121.263 210.322 121.432 209.268 121.445C209.242 121.536 209.225 121.673 209.219 121.855C209.212 122.038 209.232 122.243 209.277 122.471C209.323 122.692 209.401 122.891 209.512 123.066C209.746 123.457 210.085 123.652 210.527 123.652C211.283 123.652 212.018 123.431 212.734 122.988C212.988 122.839 213.193 122.686 213.35 122.529C213.512 122.367 213.652 122.285 213.77 122.285C213.887 122.285 213.988 122.357 214.072 122.5C214.163 122.637 214.209 122.793 214.209 122.969C214.209 123.314 214.111 123.613 213.916 123.867C213.096 124.688 211.875 125.098 210.254 125.098C209.297 125.098 208.529 124.811 207.949 124.238C207.298 123.587 206.992 122.702 207.031 121.582ZM212.734 116.191C212.051 116.191 211.393 116.66 210.762 117.598C210.228 118.405 209.798 119.362 209.473 120.469C210.56 120.358 211.504 119.928 212.305 119.18C213.04 118.477 213.408 117.803 213.408 117.158C213.408 116.514 213.184 116.191 212.734 116.191ZM216.328 121.631C216.341 121.064 216.429 120.501 216.592 119.941C216.761 119.375 216.982 118.841 217.256 118.34C217.536 117.839 217.865 117.376 218.242 116.953C218.626 116.53 219.043 116.165 219.492 115.859C220.43 115.215 221.416 114.893 222.451 114.893C223.519 114.893 224.245 115.319 224.629 116.172C224.766 116.478 224.827 116.826 224.814 117.217C224.808 117.601 224.746 117.956 224.629 118.281C224.512 118.6 224.365 118.887 224.189 119.141C223.792 119.714 223.392 120 222.988 120C222.539 120 222.207 119.876 221.992 119.629C221.803 119.414 221.745 119.163 221.816 118.877C221.836 118.792 221.895 118.717 221.992 118.652C222.09 118.581 222.214 118.47 222.363 118.32C222.786 117.878 223.008 117.36 223.027 116.768C223.04 116.364 222.793 116.162 222.285 116.162C221.738 116.162 221.165 116.468 220.566 117.08C219.694 117.972 219.079 119.115 218.721 120.508C218.408 121.719 218.467 122.604 218.896 123.164C219.15 123.49 219.495 123.652 219.932 123.652C220.667 123.652 221.377 123.392 222.061 122.871C222.269 122.708 222.438 122.542 222.568 122.373C222.699 122.204 222.819 122.119 222.93 122.119C223.04 122.119 223.132 122.174 223.203 122.285C223.281 122.389 223.32 122.526 223.32 122.695C223.32 123.079 223.148 123.457 222.803 123.828C221.917 124.674 220.853 125.098 219.609 125.098C218.548 125.098 217.728 124.795 217.148 124.189C216.576 123.59 216.302 122.738 216.328 121.631ZM226.592 124.336C226.318 124.076 226.104 123.747 225.947 123.35C225.791 122.946 225.71 122.471 225.703 121.924C225.697 121.377 225.762 120.824 225.898 120.264C226.042 119.704 226.24 119.163 226.494 118.643C226.755 118.122 227.064 117.633 227.422 117.178C227.786 116.722 228.187 116.325 228.623 115.986C229.574 115.257 230.56 114.893 231.582 114.893C232.923 114.893 233.831 115.482 234.307 116.66C234.645 117.513 234.665 118.545 234.365 119.756C234.092 120.869 233.59 121.891 232.861 122.822C232.139 123.753 231.286 124.414 230.303 124.805C229.808 125 229.32 125.098 228.838 125.098C228.363 125.098 227.936 125.036 227.559 124.912C227.188 124.788 226.865 124.596 226.592 124.336ZM228.457 119.6C228.262 120.081 228.105 120.576 227.988 121.084C227.878 121.592 227.826 122.074 227.832 122.529C227.839 122.979 227.907 123.333 228.037 123.594C228.174 123.848 228.392 123.975 228.691 123.975C228.991 123.975 229.284 123.874 229.57 123.672C229.863 123.464 230.146 123.19 230.42 122.852C230.693 122.513 230.951 122.122 231.191 121.68C231.432 121.237 231.644 120.775 231.826 120.293C232.223 119.245 232.415 118.314 232.402 117.5C232.402 116.784 232.256 116.328 231.963 116.133C231.846 116.055 231.68 116.016 231.465 116.016C231.257 116.016 231.016 116.113 230.742 116.309C230.469 116.497 230.195 116.755 229.922 117.08C229.648 117.406 229.385 117.786 229.131 118.223C228.877 118.659 228.652 119.118 228.457 119.6ZM243.34 116.738C242.962 116.738 242.272 117.285 241.27 118.379C240.521 119.232 239.977 119.873 239.639 120.303L238.76 121.416C238.382 122.132 238.086 122.728 237.871 123.203L237.344 124.336C237.207 124.616 237.087 124.814 236.982 124.932C236.885 125.042 236.748 125.098 236.572 125.098C236.403 125.098 236.237 125.065 236.074 125C235.918 124.941 235.781 124.863 235.664 124.766C235.417 124.557 235.293 124.329 235.293 124.082C235.293 123.984 235.365 123.792 235.508 123.506L235.879 122.715C235.996 122.48 236.133 122.181 236.289 121.816L236.836 120.479C237.604 118.558 237.988 117.318 237.988 116.758C237.988 116.458 237.891 116.237 237.695 116.094L237.5 115.957C237.435 115.911 237.402 115.833 237.402 115.723C237.402 115.605 237.445 115.495 237.529 115.391C237.62 115.286 237.738 115.195 237.881 115.117C238.174 114.967 238.467 114.893 238.76 114.893C239.059 114.893 239.294 114.925 239.463 114.99C239.632 115.055 239.779 115.143 239.902 115.254C240.15 115.482 240.273 115.719 240.273 115.967C240.273 116.214 240.241 116.465 240.176 116.719C240.111 116.966 240.029 117.22 239.932 117.48C239.834 117.734 239.73 117.982 239.619 118.223C239.359 118.783 239.196 119.128 239.131 119.258C239.072 119.382 239.056 119.427 239.082 119.395C240.273 117.852 240.99 116.94 241.23 116.66C241.732 116.081 242.122 115.684 242.402 115.469C242.917 115.085 243.402 114.893 243.857 114.893C244.32 114.893 244.688 115.036 244.961 115.322C245.234 115.609 245.371 115.986 245.371 116.455C245.371 116.865 245.267 117.347 245.059 117.9C244.85 118.454 244.71 118.841 244.639 119.062L246.074 117.168L246.875 116.211C247.357 115.671 247.78 115.316 248.145 115.146C248.509 114.977 248.805 114.893 249.033 114.893C249.268 114.893 249.495 114.935 249.717 115.02C249.945 115.104 250.137 115.225 250.293 115.381C250.625 115.7 250.791 116.123 250.791 116.65C250.791 117.158 250.674 117.679 250.439 118.213C250.205 118.747 250 119.186 249.824 119.531C249.648 119.87 249.479 120.212 249.316 120.557C248.841 121.592 248.604 122.36 248.604 122.861C248.604 123.213 248.747 123.389 249.033 123.389C249.307 123.389 249.554 123.33 249.775 123.213C250.003 123.096 250.15 123.037 250.215 123.037C250.352 123.037 250.42 123.105 250.42 123.242C250.42 123.822 250.124 124.307 249.531 124.697C249.134 124.964 248.77 125.098 248.438 125.098C248.112 125.098 247.848 125.059 247.646 124.98C247.445 124.902 247.262 124.779 247.1 124.609C246.735 124.232 246.553 123.76 246.553 123.193C246.553 122.627 246.624 122.106 246.768 121.631C246.911 121.156 247.08 120.697 247.275 120.254C247.471 119.805 247.666 119.395 247.861 119.023C248.063 118.646 248.216 118.346 248.32 118.125C248.529 117.669 248.633 117.334 248.633 117.119C248.633 116.865 248.499 116.738 248.232 116.738C247.881 116.738 247.249 117.321 246.338 118.486C245.648 119.391 245.169 120.042 244.902 120.439L244.229 121.416C243.851 122.132 243.561 122.728 243.359 123.203L242.861 124.336C242.738 124.616 242.63 124.814 242.539 124.932C242.448 125.042 242.321 125.098 242.158 125.098C241.995 125.098 241.836 125.072 241.68 125.02C241.53 124.967 241.4 124.899 241.289 124.814C241.035 124.626 240.908 124.427 240.908 124.219C240.908 124.004 240.977 123.714 241.113 123.35C241.257 122.979 241.432 122.565 241.641 122.109L243.008 119.219C243.496 118.145 243.74 117.464 243.74 117.178C243.74 116.885 243.607 116.738 243.34 116.738ZM244.307 119.492C244.313 119.492 244.316 119.489 244.316 119.482L244.326 119.463C244.313 119.476 244.307 119.486 244.307 119.492ZM259.648 116.738C259.271 116.738 258.581 117.285 257.578 118.379C256.829 119.232 256.286 119.873 255.947 120.303L255.068 121.416C254.691 122.132 254.395 122.728 254.18 123.203L253.652 124.336C253.516 124.616 253.395 124.814 253.291 124.932C253.193 125.042 253.057 125.098 252.881 125.098C252.712 125.098 252.546 125.065 252.383 125C252.227 124.941 252.09 124.863 251.973 124.766C251.725 124.557 251.602 124.329 251.602 124.082C251.602 123.984 251.673 123.792 251.816 123.506L252.188 122.715C252.305 122.48 252.441 122.181 252.598 121.816L253.145 120.479C253.913 118.558 254.297 117.318 254.297 116.758C254.297 116.458 254.199 116.237 254.004 116.094L253.809 115.957C253.743 115.911 253.711 115.833 253.711 115.723C253.711 115.605 253.753 115.495 253.838 115.391C253.929 115.286 254.046 115.195 254.189 115.117C254.482 114.967 254.775 114.893 255.068 114.893C255.368 114.893 255.602 114.925 255.771 114.99C255.941 115.055 256.087 115.143 256.211 115.254C256.458 115.482 256.582 115.719 256.582 115.967C256.582 116.214 256.549 116.465 256.484 116.719C256.419 116.966 256.338 117.22 256.24 117.48C256.143 117.734 256.038 117.982 255.928 118.223C255.667 118.783 255.505 119.128 255.439 119.258C255.381 119.382 255.365 119.427 255.391 119.395C256.582 117.852 257.298 116.94 257.539 116.66C258.04 116.081 258.431 115.684 258.711 115.469C259.225 115.085 259.71 114.893 260.166 114.893C260.628 114.893 260.996 115.036 261.27 115.322C261.543 115.609 261.68 115.986 261.68 116.455C261.68 116.865 261.576 117.347 261.367 117.9C261.159 118.454 261.019 118.841 260.947 119.062L262.383 117.168L263.184 116.211C263.665 115.671 264.089 115.316 264.453 115.146C264.818 114.977 265.114 114.893 265.342 114.893C265.576 114.893 265.804 114.935 266.025 115.02C266.253 115.104 266.445 115.225 266.602 115.381C266.934 115.7 267.1 116.123 267.1 116.65C267.1 117.158 266.982 117.679 266.748 118.213C266.514 118.747 266.309 119.186 266.133 119.531C265.957 119.87 265.788 120.212 265.625 120.557C265.15 121.592 264.912 122.36 264.912 122.861C264.912 123.213 265.055 123.389 265.342 123.389C265.615 123.389 265.863 123.33 266.084 123.213C266.312 123.096 266.458 123.037 266.523 123.037C266.66 123.037 266.729 123.105 266.729 123.242C266.729 123.822 266.432 124.307 265.84 124.697C265.443 124.964 265.078 125.098 264.746 125.098C264.421 125.098 264.157 125.059 263.955 124.98C263.753 124.902 263.571 124.779 263.408 124.609C263.044 124.232 262.861 123.76 262.861 123.193C262.861 122.627 262.933 122.106 263.076 121.631C263.219 121.156 263.389 120.697 263.584 120.254C263.779 119.805 263.975 119.395 264.17 119.023C264.372 118.646 264.525 118.346 264.629 118.125C264.837 117.669 264.941 117.334 264.941 117.119C264.941 116.865 264.808 116.738 264.541 116.738C264.189 116.738 263.558 117.321 262.646 118.486C261.956 119.391 261.478 120.042 261.211 120.439L260.537 121.416C260.16 122.132 259.87 122.728 259.668 123.203L259.17 124.336C259.046 124.616 258.939 124.814 258.848 124.932C258.757 125.042 258.63 125.098 258.467 125.098C258.304 125.098 258.145 125.072 257.988 125.02C257.839 124.967 257.708 124.899 257.598 124.814C257.344 124.626 257.217 124.427 257.217 124.219C257.217 124.004 257.285 123.714 257.422 123.35C257.565 122.979 257.741 122.565 257.949 122.109L259.316 119.219C259.805 118.145 260.049 117.464 260.049 117.178C260.049 116.885 259.915 116.738 259.648 116.738ZM260.615 119.492C260.622 119.492 260.625 119.489 260.625 119.482L260.635 119.463C260.622 119.476 260.615 119.486 260.615 119.492ZM268.691 121.582C268.717 121.016 268.812 120.475 268.975 119.961C269.137 119.44 269.355 118.939 269.629 118.457C269.902 117.969 270.221 117.51 270.586 117.08C270.957 116.644 271.357 116.263 271.787 115.938C272.718 115.241 273.659 114.893 274.609 114.893C275.723 114.893 276.465 115.352 276.836 116.27C276.966 116.582 277.028 116.953 277.021 117.383C277.015 117.806 276.934 118.2 276.777 118.564C276.621 118.923 276.403 119.251 276.123 119.551C275.85 119.844 275.521 120.107 275.137 120.342C274.759 120.576 274.346 120.775 273.896 120.938C272.972 121.263 271.982 121.432 270.928 121.445C270.902 121.536 270.885 121.673 270.879 121.855C270.872 122.038 270.892 122.243 270.938 122.471C270.983 122.692 271.061 122.891 271.172 123.066C271.406 123.457 271.745 123.652 272.188 123.652C272.943 123.652 273.678 123.431 274.395 122.988C274.648 122.839 274.854 122.686 275.01 122.529C275.173 122.367 275.312 122.285 275.43 122.285C275.547 122.285 275.648 122.357 275.732 122.5C275.824 122.637 275.869 122.793 275.869 122.969C275.869 123.314 275.771 123.613 275.576 123.867C274.756 124.688 273.535 125.098 271.914 125.098C270.957 125.098 270.189 124.811 269.609 124.238C268.958 123.587 268.652 122.702 268.691 121.582ZM274.395 116.191C273.711 116.191 273.053 116.66 272.422 117.598C271.888 118.405 271.458 119.362 271.133 120.469C272.22 120.358 273.164 119.928 273.965 119.18C274.701 118.477 275.068 117.803 275.068 117.158C275.068 116.514 274.844 116.191 274.395 116.191ZM278.066 124.766C277.936 124.668 277.832 124.561 277.754 124.443C277.676 124.32 277.633 124.215 277.627 124.131C277.62 124.04 277.637 123.932 277.676 123.809C277.721 123.678 277.78 123.522 277.852 123.34C279.18 120.072 279.844 117.878 279.844 116.758C279.824 116.445 279.717 116.224 279.521 116.094L279.326 115.957C279.268 115.911 279.235 115.833 279.229 115.723C279.229 115.605 279.271 115.495 279.355 115.391C279.44 115.286 279.551 115.195 279.688 115.117C279.967 114.967 280.254 114.893 280.547 114.893C280.846 114.893 281.077 114.925 281.24 114.99C281.41 115.055 281.553 115.143 281.67 115.254C281.917 115.488 282.041 115.736 282.041 115.996C282.048 116.257 282.018 116.52 281.953 116.787C281.895 117.054 281.823 117.318 281.738 117.578C281.654 117.832 281.569 118.076 281.484 118.311C281.4 118.538 281.344 118.708 281.318 118.818C281.266 119.046 281.247 119.189 281.26 119.248C281.416 119.111 281.51 118.978 281.543 118.848L281.924 118.125C282.77 116.602 283.597 115.592 284.404 115.098C284.639 114.961 284.919 114.893 285.244 114.893C285.576 114.893 285.843 115.01 286.045 115.244C286.247 115.472 286.351 115.726 286.357 116.006C286.37 116.286 286.351 116.52 286.299 116.709C286.253 116.891 286.182 117.064 286.084 117.227C285.869 117.591 285.609 117.773 285.303 117.773C285.218 117.773 285.14 117.744 285.068 117.686L284.854 117.5C284.639 117.311 284.43 117.217 284.229 117.217C284.033 117.217 283.792 117.347 283.506 117.607C283.226 117.868 282.933 118.203 282.627 118.613C281.598 119.974 280.758 121.497 280.107 123.184L279.678 124.316C279.567 124.596 279.469 124.798 279.385 124.922C279.3 125.039 279.173 125.098 279.004 125.098C278.841 125.098 278.675 125.065 278.506 125C278.343 124.941 278.197 124.863 278.066 124.766ZM286.152 121.631C286.165 121.064 286.253 120.501 286.416 119.941C286.585 119.375 286.807 118.841 287.08 118.34C287.36 117.839 287.689 117.376 288.066 116.953C288.451 116.53 288.867 116.165 289.316 115.859C290.254 115.215 291.24 114.893 292.275 114.893C293.343 114.893 294.069 115.319 294.453 116.172C294.59 116.478 294.652 116.826 294.639 117.217C294.632 117.601 294.57 117.956 294.453 118.281C294.336 118.6 294.189 118.887 294.014 119.141C293.617 119.714 293.216 120 292.812 120C292.363 120 292.031 119.876 291.816 119.629C291.628 119.414 291.569 119.163 291.641 118.877C291.66 118.792 291.719 118.717 291.816 118.652C291.914 118.581 292.038 118.47 292.188 118.32C292.611 117.878 292.832 117.36 292.852 116.768C292.865 116.364 292.617 116.162 292.109 116.162C291.562 116.162 290.99 116.468 290.391 117.08C289.518 117.972 288.903 119.115 288.545 120.508C288.232 121.719 288.291 122.604 288.721 123.164C288.975 123.49 289.32 123.652 289.756 123.652C290.492 123.652 291.201 123.392 291.885 122.871C292.093 122.708 292.262 122.542 292.393 122.373C292.523 122.204 292.643 122.119 292.754 122.119C292.865 122.119 292.956 122.174 293.027 122.285C293.105 122.389 293.145 122.526 293.145 122.695C293.145 123.079 292.972 123.457 292.627 123.828C291.742 124.674 290.677 125.098 289.434 125.098C288.372 125.098 287.552 124.795 286.973 124.189C286.4 123.59 286.126 122.738 286.152 121.631ZM295.605 121.582C295.632 121.016 295.726 120.475 295.889 119.961C296.051 119.44 296.27 118.939 296.543 118.457C296.816 117.969 297.135 117.51 297.5 117.08C297.871 116.644 298.271 116.263 298.701 115.938C299.632 115.241 300.573 114.893 301.523 114.893C302.637 114.893 303.379 115.352 303.75 116.27C303.88 116.582 303.942 116.953 303.936 117.383C303.929 117.806 303.848 118.2 303.691 118.564C303.535 118.923 303.317 119.251 303.037 119.551C302.764 119.844 302.435 120.107 302.051 120.342C301.673 120.576 301.26 120.775 300.811 120.938C299.886 121.263 298.896 121.432 297.842 121.445C297.816 121.536 297.799 121.673 297.793 121.855C297.786 122.038 297.806 122.243 297.852 122.471C297.897 122.692 297.975 122.891 298.086 123.066C298.32 123.457 298.659 123.652 299.102 123.652C299.857 123.652 300.592 123.431 301.309 122.988C301.562 122.839 301.768 122.686 301.924 122.529C302.087 122.367 302.227 122.285 302.344 122.285C302.461 122.285 302.562 122.357 302.646 122.5C302.738 122.637 302.783 122.793 302.783 122.969C302.783 123.314 302.686 123.613 302.49 123.867C301.67 124.688 300.449 125.098 298.828 125.098C297.871 125.098 297.103 124.811 296.523 124.238C295.872 123.587 295.566 122.702 295.605 121.582ZM301.309 116.191C300.625 116.191 299.967 116.66 299.336 117.598C298.802 118.405 298.372 119.362 298.047 120.469C299.134 120.358 300.078 119.928 300.879 119.18C301.615 118.477 301.982 117.803 301.982 117.158C301.982 116.514 301.758 116.191 301.309 116.191ZM314.326 123.887C313.441 124.668 312.744 125.059 312.236 125.059C311.735 125.059 311.387 124.798 311.191 124.277C311.12 124.095 311.084 123.926 311.084 123.77C311.084 123.346 311.149 122.936 311.279 122.539C311.416 122.142 311.549 121.771 311.68 121.426L312.539 119.209C312.871 118.304 313.073 117.673 313.145 117.314C313.216 116.956 313.206 116.715 313.115 116.592C313.024 116.462 312.917 116.351 312.793 116.26C312.676 116.162 312.562 116.077 312.451 116.006C312.347 115.928 312.295 115.833 312.295 115.723C312.295 115.605 312.34 115.495 312.432 115.391C312.529 115.286 312.656 115.195 312.812 115.117C313.125 114.967 313.447 114.893 313.779 114.893C314.118 114.893 314.382 114.928 314.57 115C314.766 115.065 314.925 115.15 315.049 115.254C315.29 115.469 315.41 115.729 315.41 116.035C315.41 116.335 315.358 116.673 315.254 117.051C315.156 117.428 315.029 117.829 314.873 118.252C314.723 118.675 314.554 119.115 314.365 119.57L313.828 120.918C313.405 122.005 313.148 122.819 313.057 123.359C313.669 123.151 314.479 122.402 315.488 121.113C316.589 119.701 317.562 118.089 318.408 116.279C318.506 116.051 318.626 115.905 318.77 115.84C319.004 115.729 319.3 115.68 319.658 115.693C320.225 115.713 320.518 115.889 320.537 116.221C320.55 116.423 320.495 116.647 320.371 116.895C320.254 117.135 320.156 117.337 320.078 117.5L319.697 118.281C318.936 119.824 318.555 121.077 318.555 122.041C318.555 122.712 318.737 123.171 319.102 123.418C319.206 123.496 319.365 123.535 319.58 123.535C319.795 123.535 320.049 123.46 320.342 123.311C320.635 123.154 320.915 122.943 321.182 122.676C321.449 122.409 321.696 122.1 321.924 121.748C322.158 121.39 322.36 121.009 322.529 120.605C322.887 119.753 323.066 118.997 323.066 118.34C323.066 117.214 322.855 116.383 322.432 115.85C322.288 115.68 322.331 115.482 322.559 115.254C322.799 115.013 323.177 114.893 323.691 114.893C324.323 114.893 324.753 115.247 324.98 115.957C325.072 116.224 325.117 116.624 325.117 117.158C325.117 117.692 325.023 118.288 324.834 118.945C324.645 119.596 324.388 120.225 324.062 120.83C323.743 121.429 323.372 121.989 322.949 122.51C322.533 123.031 322.093 123.483 321.631 123.867C320.641 124.688 319.723 125.098 318.877 125.098C317.425 125.098 316.699 124.16 316.699 122.285C316.699 121.855 316.738 121.436 316.816 121.025C316.048 122.145 315.218 123.099 314.326 123.887ZM331.387 112.607C331.243 112.757 331.081 112.881 330.898 112.979C330.716 113.07 330.524 113.128 330.322 113.154C330.12 113.174 329.928 113.141 329.746 113.057C329.57 112.972 329.417 112.852 329.287 112.695C329.007 112.37 328.867 112.041 328.867 111.709C328.867 111.377 328.919 111.13 329.023 110.967C329.134 110.798 329.271 110.661 329.434 110.557C329.746 110.355 330.039 110.254 330.312 110.254C330.592 110.254 330.807 110.273 330.957 110.312C331.113 110.352 331.257 110.417 331.387 110.508C331.706 110.723 331.865 110.986 331.865 111.299C331.865 111.605 331.82 111.862 331.729 112.07C331.644 112.272 331.53 112.451 331.387 112.607ZM329.385 123.174C329.554 123.174 329.639 123.285 329.639 123.506C329.639 123.799 329.505 124.102 329.238 124.414C328.848 124.87 328.324 125.098 327.666 125.098C326.911 125.098 326.393 124.792 326.113 124.18C326.009 123.965 325.957 123.704 325.957 123.398C325.957 123.092 326.009 122.754 326.113 122.383C326.224 122.005 326.357 121.611 326.514 121.201C326.676 120.785 326.852 120.365 327.041 119.941L327.559 118.711C327.936 117.793 328.125 117.188 328.125 116.895C328.125 116.602 328.092 116.41 328.027 116.318C327.969 116.221 327.904 116.146 327.832 116.094L327.637 115.957C327.572 115.911 327.539 115.833 327.539 115.723C327.539 115.605 327.581 115.495 327.666 115.391C327.757 115.286 327.874 115.195 328.018 115.117C328.311 114.967 328.652 114.893 329.043 114.893C330 114.893 330.479 115.143 330.479 115.645C330.479 116.23 330.326 116.901 330.02 117.656C329.714 118.405 329.453 119.01 329.238 119.473L328.652 120.82C328.223 121.81 328.008 122.523 328.008 122.959C328.008 123.245 328.151 123.389 328.438 123.389C328.717 123.389 328.929 123.353 329.072 123.281C329.215 123.21 329.32 123.174 329.385 123.174ZM337.52 122.441C337.708 122.441 337.803 122.568 337.803 122.822C337.803 123.037 337.738 123.245 337.607 123.447C337.432 123.825 337.08 124.183 336.553 124.521C335.954 124.906 335.352 125.098 334.746 125.098C333.698 125.098 333.034 124.629 332.754 123.691C332.422 122.578 332.92 120.218 334.248 116.611C333.499 116.546 333.092 116.416 333.027 116.221C333.008 116.162 332.998 116.1 332.998 116.035C332.998 115.964 333.027 115.882 333.086 115.791C333.151 115.7 333.232 115.612 333.33 115.527C333.558 115.339 333.789 115.244 334.023 115.244H334.795C335.498 113.597 335.999 112.66 336.299 112.432C336.442 112.327 336.602 112.275 336.777 112.275C336.953 112.275 337.1 112.298 337.217 112.344C337.334 112.389 337.438 112.454 337.529 112.539C337.738 112.734 337.842 112.952 337.842 113.193C337.842 113.324 337.803 113.473 337.725 113.643L337.002 115.215H337.236C337.64 115.215 337.965 115.212 338.213 115.205C338.213 115.205 338.398 115.202 338.77 115.195C338.893 115.189 339.046 115.186 339.229 115.186C339.417 115.186 339.512 115.254 339.512 115.391C339.512 116.25 338.496 116.68 336.465 116.68H336.387L335.723 118.398C334.974 120.43 334.6 121.852 334.6 122.666C334.6 122.894 334.652 123.073 334.756 123.203C334.86 123.327 335.055 123.389 335.342 123.389C335.628 123.389 335.889 123.34 336.123 123.242C336.357 123.145 336.562 123.037 336.738 122.92C336.914 122.796 337.064 122.686 337.188 122.588C337.318 122.49 337.428 122.441 337.52 122.441ZM346.074 116.738C345.716 116.738 345.075 117.285 344.15 118.379L343.34 119.375L341.777 121.416C341.4 122.132 341.104 122.728 340.889 123.203L340.361 124.336C340.225 124.616 340.104 124.814 340 124.932C339.902 125.042 339.766 125.098 339.59 125.098C339.421 125.098 339.255 125.065 339.092 125C338.936 124.941 338.799 124.863 338.682 124.766C338.434 124.557 338.311 124.329 338.311 124.082C338.311 123.984 338.379 123.792 338.516 123.506L338.906 122.715C340.124 120.208 341.227 117.031 342.217 113.184C342.581 111.764 342.845 110.488 343.008 109.355C343.079 108.809 343.346 108.535 343.809 108.535C344.108 108.535 344.355 108.607 344.551 108.75C344.928 109.03 345.111 109.329 345.098 109.648C345.085 109.967 345.039 110.326 344.961 110.723C344.883 111.12 344.782 111.553 344.658 112.021C344.535 112.484 344.395 112.972 344.238 113.486C343.809 114.795 343.49 115.739 343.281 116.318C342.643 118.07 342.249 119.095 342.1 119.395C342.197 119.277 342.324 119.118 342.48 118.916C343.665 117.36 344.398 116.432 344.678 116.133C344.958 115.827 345.195 115.592 345.391 115.43C345.801 115.072 346.322 114.893 346.953 114.893C347.467 114.893 347.881 115.065 348.193 115.41C348.486 115.742 348.633 116.107 348.633 116.504C348.633 116.895 348.587 117.249 348.496 117.568C348.411 117.881 348.301 118.2 348.164 118.525C348.027 118.851 347.878 119.186 347.715 119.531L347.227 120.557C346.771 121.592 346.543 122.36 346.543 122.861C346.543 123.213 346.686 123.389 346.973 123.389C347.246 123.389 347.493 123.33 347.715 123.213C347.943 123.096 348.089 123.037 348.154 123.037C348.291 123.037 348.359 123.105 348.359 123.242C348.359 123.822 348.066 124.307 347.48 124.697C347.077 124.964 346.709 125.098 346.377 125.098C346.045 125.098 345.768 125.065 345.547 125C345.332 124.928 345.14 124.814 344.971 124.658C344.587 124.307 344.395 123.789 344.395 123.105C344.395 122.37 344.635 121.445 345.117 120.332L346.172 118.086C346.374 117.669 346.475 117.34 346.475 117.1C346.475 116.859 346.341 116.738 346.074 116.738ZM356.387 121.582C356.413 121.016 356.507 120.475 356.67 119.961C356.833 119.44 357.051 118.939 357.324 118.457C357.598 117.969 357.917 117.51 358.281 117.08C358.652 116.644 359.053 116.263 359.482 115.938C360.413 115.241 361.354 114.893 362.305 114.893C363.418 114.893 364.16 115.352 364.531 116.27C364.661 116.582 364.723 116.953 364.717 117.383C364.71 117.806 364.629 118.2 364.473 118.564C364.316 118.923 364.098 119.251 363.818 119.551C363.545 119.844 363.216 120.107 362.832 120.342C362.454 120.576 362.041 120.775 361.592 120.938C360.667 121.263 359.678 121.432 358.623 121.445C358.597 121.536 358.581 121.673 358.574 121.855C358.568 122.038 358.587 122.243 358.633 122.471C358.678 122.692 358.757 122.891 358.867 123.066C359.102 123.457 359.44 123.652 359.883 123.652C360.638 123.652 361.374 123.431 362.09 122.988C362.344 122.839 362.549 122.686 362.705 122.529C362.868 122.367 363.008 122.285 363.125 122.285C363.242 122.285 363.343 122.357 363.428 122.5C363.519 122.637 363.564 122.793 363.564 122.969C363.564 123.314 363.467 123.613 363.271 123.867C362.451 124.688 361.23 125.098 359.609 125.098C358.652 125.098 357.884 124.811 357.305 124.238C356.654 123.587 356.348 122.702 356.387 121.582ZM362.09 116.191C361.406 116.191 360.749 116.66 360.117 117.598C359.583 118.405 359.154 119.362 358.828 120.469C359.915 120.358 360.859 119.928 361.66 119.18C362.396 118.477 362.764 117.803 362.764 117.158C362.764 116.514 362.539 116.191 362.09 116.191ZM373.262 122.402C373.262 123.001 373.473 123.301 373.896 123.301C374.189 123.301 374.43 123.255 374.619 123.164C374.814 123.073 374.945 123.027 375.01 123.027C375.146 123.027 375.215 123.099 375.215 123.242C375.215 123.802 374.922 124.284 374.336 124.688C373.717 125.111 373.086 125.215 372.441 125C372.018 124.85 371.706 124.528 371.504 124.033C371.406 123.779 371.357 123.548 371.357 123.34C371.357 123.001 371.39 122.643 371.455 122.266C370.85 123.503 370.098 124.355 369.199 124.824C368.841 125.007 368.46 125.098 368.057 125.098C367.653 125.098 367.301 125.016 367.002 124.854C366.709 124.684 366.458 124.453 366.25 124.16C365.827 123.548 365.635 122.78 365.674 121.855C365.713 120.697 366.055 119.561 366.699 118.447C367.292 117.406 368.04 116.556 368.945 115.898C369.85 115.228 370.697 114.893 371.484 114.893C372.272 114.893 372.907 115.254 373.389 115.977C373.838 115.254 374.235 114.893 374.58 114.893C374.951 114.893 375.231 114.961 375.42 115.098C375.778 115.358 375.905 115.586 375.801 115.781C374.167 119.128 373.327 121.211 373.281 122.031C373.268 122.148 373.262 122.272 373.262 122.402ZM367.842 122.441C367.842 123.223 368.092 123.613 368.594 123.613C368.978 123.613 369.45 123.288 370.01 122.637C370.83 121.68 371.556 120.391 372.188 118.77C372.389 118.262 372.559 117.754 372.695 117.246C372.669 116.803 372.484 116.478 372.139 116.27C372.021 116.198 371.846 116.162 371.611 116.162C371.383 116.162 371.113 116.247 370.801 116.416C370.495 116.585 370.195 116.816 369.902 117.109C369.616 117.402 369.346 117.751 369.092 118.154C368.844 118.551 368.626 118.984 368.438 119.453C368.04 120.456 367.842 121.452 367.842 122.441ZM376.094 123.281C376.094 123.079 376.136 122.894 376.221 122.725C376.312 122.549 376.423 122.402 376.553 122.285C376.826 122.031 377.113 121.904 377.412 121.904C377.673 121.904 377.803 122.038 377.803 122.305C377.803 122.982 378.027 123.454 378.477 123.721C378.639 123.818 378.809 123.867 378.984 123.867C379.16 123.867 379.31 123.848 379.434 123.809C379.557 123.77 379.671 123.708 379.775 123.623C380.01 123.434 380.127 123.21 380.127 122.949C380.127 122.689 380.068 122.451 379.951 122.236C379.834 122.015 379.688 121.784 379.512 121.543L378.955 120.762C378.174 119.72 377.783 118.76 377.783 117.881C377.783 117.152 378.092 116.491 378.711 115.898C379.414 115.228 380.316 114.893 381.416 114.893C382.38 114.893 383.132 115.13 383.672 115.605C384.115 115.99 384.336 116.429 384.336 116.924C384.336 117.438 384.141 117.848 383.75 118.154C383.398 118.428 383.047 118.529 382.695 118.457C382.539 118.424 382.419 118.346 382.334 118.223C382.249 118.092 382.233 117.946 382.285 117.783C382.337 117.62 382.363 117.451 382.363 117.275C382.363 117.1 382.331 116.937 382.266 116.787C382.201 116.637 382.113 116.51 382.002 116.406C381.774 116.191 381.533 116.084 381.279 116.084C381.032 116.084 380.827 116.113 380.664 116.172C380.501 116.224 380.358 116.302 380.234 116.406C379.98 116.641 379.854 116.93 379.854 117.275C379.854 117.614 379.912 117.907 380.029 118.154C380.146 118.402 380.29 118.649 380.459 118.896C380.635 119.144 380.824 119.395 381.025 119.648C381.227 119.902 381.413 120.169 381.582 120.449C381.992 121.107 382.197 121.686 382.197 122.188C382.197 122.682 382.093 123.099 381.885 123.438C381.676 123.77 381.406 124.056 381.074 124.297C380.365 124.824 379.57 125.088 378.691 125.088C377.852 125.088 377.188 124.886 376.699 124.482C376.296 124.144 376.094 123.743 376.094 123.281ZM385.137 121.582C385.163 121.016 385.257 120.475 385.42 119.961C385.583 119.44 385.801 118.939 386.074 118.457C386.348 117.969 386.667 117.51 387.031 117.08C387.402 116.644 387.803 116.263 388.232 115.938C389.163 115.241 390.104 114.893 391.055 114.893C392.168 114.893 392.91 115.352 393.281 116.27C393.411 116.582 393.473 116.953 393.467 117.383C393.46 117.806 393.379 118.2 393.223 118.564C393.066 118.923 392.848 119.251 392.568 119.551C392.295 119.844 391.966 120.107 391.582 120.342C391.204 120.576 390.791 120.775 390.342 120.938C389.417 121.263 388.428 121.432 387.373 121.445C387.347 121.536 387.331 121.673 387.324 121.855C387.318 122.038 387.337 122.243 387.383 122.471C387.428 122.692 387.507 122.891 387.617 123.066C387.852 123.457 388.19 123.652 388.633 123.652C389.388 123.652 390.124 123.431 390.84 122.988C391.094 122.839 391.299 122.686 391.455 122.529C391.618 122.367 391.758 122.285 391.875 122.285C391.992 122.285 392.093 122.357 392.178 122.5C392.269 122.637 392.314 122.793 392.314 122.969C392.314 123.314 392.217 123.613 392.021 123.867C391.201 124.688 389.98 125.098 388.359 125.098C387.402 125.098 386.634 124.811 386.055 124.238C385.404 123.587 385.098 122.702 385.137 121.582ZM390.84 116.191C390.156 116.191 389.499 116.66 388.867 117.598C388.333 118.405 387.904 119.362 387.578 120.469C388.665 120.358 389.609 119.928 390.41 119.18C391.146 118.477 391.514 117.803 391.514 117.158C391.514 116.514 391.289 116.191 390.84 116.191Z" fill="#0F64C4"/>
</svg>
