<svg width="17" height="17" viewBox="0 0 17 17" fill="none" xmlns="http://www.w3.org/2000/svg">
<path d="M15.008 1.328H14.208V0H12.883V1.328H4.117V0H2.789V1.328H1.989C1.46137 1.32932 0.955776 1.53971 0.582966 1.91309C0.210156 2.28646 0.00052756 2.79237 0 3.32L0 15.008C0.000529473 15.5361 0.21057 16.0425 0.584028 16.416C0.957486 16.7894 1.46385 16.9995 1.992 17H15.008C15.5361 16.9995 16.0425 16.7894 16.416 16.416C16.7894 16.0425 16.9995 15.5361 17 15.008V3.32C16.9995 2.79185 16.7894 2.28549 16.416 1.91203C16.0425 1.53857 15.5361 1.32853 15.008 1.328ZM15.672 15.008C15.6717 15.184 15.6017 15.3528 15.4772 15.4772C15.3528 15.6017 15.184 15.6717 15.008 15.672H1.992C1.81598 15.6717 1.64724 15.6017 1.52277 15.4772C1.39831 15.3528 1.32826 15.184 1.328 15.008V6.242H15.672V15.008ZM15.672 4.914H1.328V3.32C1.32826 3.14398 1.39831 2.97524 1.52277 2.85077C1.64724 2.72631 1.81598 2.65626 1.992 2.656H2.792V3.984H4.117V2.656H12.883V3.984H14.211V2.656H15.011C15.187 2.65626 15.3558 2.72631 15.4802 2.85077C15.6047 2.97524 15.6747 3.14398 15.675 3.32L15.672 4.914Z" fill="black"/>
<path d="M3.85144 7.63696H2.52344V8.96496H3.85144V7.63696Z" fill="black"/>
<path d="M6.50769 7.63696H5.17969V8.96496H6.50769V7.63696Z" fill="black"/>
<path d="M9.16394 7.63696H7.83594V8.96496H9.16394V7.63696Z" fill="black"/>
<path d="M11.8202 7.63696H10.4922V8.96496H11.8202V7.63696Z" fill="black"/>
<path d="M14.4764 7.63696H13.1484V8.96496H14.4764V7.63696Z" fill="black"/>
<path d="M3.85144 10.293H2.52344V11.621H3.85144V10.293Z" fill="black"/>
<path d="M6.50769 10.293H5.17969V11.621H6.50769V10.293Z" fill="black"/>
<path d="M9.16394 10.293H7.83594V11.621H9.16394V10.293Z" fill="black"/>
<path d="M11.8202 10.293H10.4922V11.621H11.8202V10.293Z" fill="black"/>
<path d="M3.85144 12.949H2.52344V14.277H3.85144V12.949Z" fill="black"/>
<path d="M6.50769 12.949H5.17969V14.277H6.50769V12.949Z" fill="black"/>
<path d="M9.16394 12.949H7.83594V14.277H9.16394V12.949Z" fill="black"/>
<path d="M11.8202 12.949H10.4922V14.277H11.8202V12.949Z" fill="black"/>
<path d="M14.4764 10.293H13.1484V11.621H14.4764V10.293Z" fill="black"/>
</svg>
